<svg width="22" height="22" viewBox="0 0 22 22" fill="none" xmlns="http://www.w3.org/2000/svg">
<path fill-rule="evenodd" clip-rule="evenodd" d="M20.8881 15.597V18.5128C20.8904 19.0602 20.6552 19.5831 20.2402 19.9531C19.8252 20.3231 19.269 20.506 18.7081 20.4567C15.6309 20.1317 12.6751 19.1097 10.0781 17.4729C7.66195 15.9806 5.61346 13.9896 4.07812 11.6413C2.3881 9.1057 1.33637 6.21885 1.00812 3.21461C0.957597 2.67118 1.1444 2.13212 1.52289 1.72913C1.90138 1.32614 2.43672 1.09631 2.99812 1.0958H5.99812C7.00198 1.0862 7.85762 1.80139 7.99812 2.76752C8.12474 3.70064 8.35957 4.61685 8.69812 5.49865C8.97285 6.20902 8.79713 7.00982 8.24812 7.54943L6.97812 8.78379C8.40167 11.2171 10.4746 13.2318 12.9781 14.6154L14.2481 13.381C14.8033 12.8474 15.6272 12.6766 16.3581 12.9437C17.2654 13.2727 18.208 13.5009 19.1681 13.624C20.1737 13.7619 20.9133 14.6103 20.8881 15.597Z" stroke="#C5D3DB" stroke-width="2" stroke-linecap="round" stroke-linejoin="round"/>
</svg>
